<mxfile host="Electron" modified="2024-06-04T13:40:35.652Z" agent="Mozilla/5.0 (Windows NT 10.0; Win64; x64) AppleWebKit/537.36 (KHTML, like Gecko) draw.io/22.1.2 Chrome/114.0.5735.289 Electron/25.9.4 Safari/537.36" etag="MBgczHA2q2oJwnFWBIOr" version="22.1.2" type="device">
  <diagram name="第 1 页" id="FtdNRA4a0sVEHcwf5Sdv">
    <mxGraphModel dx="1340" dy="698" grid="1" gridSize="10" guides="1" tooltips="1" connect="1" arrows="1" fold="1" page="1" pageScale="1" pageWidth="980" pageHeight="690" math="0" shadow="0">
      <root>
        <mxCell id="0" />
        <mxCell id="1" parent="0" />
        <mxCell id="fIc0N1o0Y2s-ZAZE2yNl-7" style="edgeStyle=orthogonalEdgeStyle;rounded=0;orthogonalLoop=1;jettySize=auto;html=1;entryX=0;entryY=0.5;entryDx=0;entryDy=0;" edge="1" parent="1" source="fIc0N1o0Y2s-ZAZE2yNl-3" target="fIc0N1o0Y2s-ZAZE2yNl-4">
          <mxGeometry relative="1" as="geometry">
            <Array as="points">
              <mxPoint x="220" y="200" />
            </Array>
          </mxGeometry>
        </mxCell>
        <mxCell id="fIc0N1o0Y2s-ZAZE2yNl-3" value="SubFlows" style="ellipse;whiteSpace=wrap;html=1;" vertex="1" parent="1">
          <mxGeometry x="170" y="160" width="120" height="80" as="geometry" />
        </mxCell>
        <mxCell id="fIc0N1o0Y2s-ZAZE2yNl-9" value="" style="edgeStyle=orthogonalEdgeStyle;rounded=0;orthogonalLoop=1;jettySize=auto;html=1;" edge="1" parent="1" source="fIc0N1o0Y2s-ZAZE2yNl-4" target="fIc0N1o0Y2s-ZAZE2yNl-8">
          <mxGeometry relative="1" as="geometry" />
        </mxCell>
        <mxCell id="fIc0N1o0Y2s-ZAZE2yNl-4" value="Git/Docker" style="ellipse;whiteSpace=wrap;html=1;" vertex="1" parent="1">
          <mxGeometry x="340" y="160" width="120" height="80" as="geometry" />
        </mxCell>
        <mxCell id="fIc0N1o0Y2s-ZAZE2yNl-8" value="SubFlow Deployments" style="ellipse;whiteSpace=wrap;html=1;" vertex="1" parent="1">
          <mxGeometry x="540" y="160" width="120" height="80" as="geometry" />
        </mxCell>
        <mxCell id="fIc0N1o0Y2s-ZAZE2yNl-12" value="Flow" style="ellipse;whiteSpace=wrap;html=1;" vertex="1" parent="1">
          <mxGeometry x="30" y="420" width="120" height="80" as="geometry" />
        </mxCell>
        <mxCell id="fIc0N1o0Y2s-ZAZE2yNl-16" value="" style="edgeStyle=orthogonalEdgeStyle;rounded=0;orthogonalLoop=1;jettySize=auto;html=1;" edge="1" parent="1" source="fIc0N1o0Y2s-ZAZE2yNl-13" target="fIc0N1o0Y2s-ZAZE2yNl-14">
          <mxGeometry relative="1" as="geometry" />
        </mxCell>
        <mxCell id="fIc0N1o0Y2s-ZAZE2yNl-48" value="Status: Completed" style="edgeLabel;html=1;align=center;verticalAlign=middle;resizable=0;points=[];" vertex="1" connectable="0" parent="fIc0N1o0Y2s-ZAZE2yNl-16">
          <mxGeometry x="-0.1444" y="-1" relative="1" as="geometry">
            <mxPoint as="offset" />
          </mxGeometry>
        </mxCell>
        <mxCell id="fIc0N1o0Y2s-ZAZE2yNl-25" style="edgeStyle=orthogonalEdgeStyle;rounded=0;orthogonalLoop=1;jettySize=auto;html=1;entryX=0;entryY=0.5;entryDx=0;entryDy=0;" edge="1" parent="1" source="fIc0N1o0Y2s-ZAZE2yNl-13" target="fIc0N1o0Y2s-ZAZE2yNl-27">
          <mxGeometry relative="1" as="geometry">
            <mxPoint x="530" y="320" as="targetPoint" />
          </mxGeometry>
        </mxCell>
        <mxCell id="fIc0N1o0Y2s-ZAZE2yNl-26" value="Run_Deployments" style="edgeLabel;html=1;align=center;verticalAlign=middle;resizable=0;points=[];" vertex="1" connectable="0" parent="fIc0N1o0Y2s-ZAZE2yNl-25">
          <mxGeometry x="-0.0797" y="-2" relative="1" as="geometry">
            <mxPoint as="offset" />
          </mxGeometry>
        </mxCell>
        <mxCell id="fIc0N1o0Y2s-ZAZE2yNl-13" value="SubFlows" style="ellipse;whiteSpace=wrap;html=1;" vertex="1" parent="1">
          <mxGeometry x="170" y="280" width="120" height="80" as="geometry" />
        </mxCell>
        <mxCell id="fIc0N1o0Y2s-ZAZE2yNl-23" value="" style="edgeStyle=orthogonalEdgeStyle;rounded=0;orthogonalLoop=1;jettySize=auto;html=1;" edge="1" parent="1" source="fIc0N1o0Y2s-ZAZE2yNl-14" target="fIc0N1o0Y2s-ZAZE2yNl-18">
          <mxGeometry relative="1" as="geometry" />
        </mxCell>
        <mxCell id="fIc0N1o0Y2s-ZAZE2yNl-14" value="Subflows" style="ellipse;whiteSpace=wrap;html=1;" vertex="1" parent="1">
          <mxGeometry x="170" y="420" width="120" height="80" as="geometry" />
        </mxCell>
        <mxCell id="fIc0N1o0Y2s-ZAZE2yNl-18" value="Subflows" style="ellipse;whiteSpace=wrap;html=1;" vertex="1" parent="1">
          <mxGeometry x="170" y="550" width="120" height="80" as="geometry" />
        </mxCell>
        <mxCell id="fIc0N1o0Y2s-ZAZE2yNl-20" value="" style="endArrow=none;html=1;rounded=0;entryX=0;entryY=0.5;entryDx=0;entryDy=0;" edge="1" parent="1" target="fIc0N1o0Y2s-ZAZE2yNl-13">
          <mxGeometry width="50" height="50" relative="1" as="geometry">
            <mxPoint x="90" y="420" as="sourcePoint" />
            <mxPoint x="140" y="370" as="targetPoint" />
          </mxGeometry>
        </mxCell>
        <mxCell id="fIc0N1o0Y2s-ZAZE2yNl-21" value="" style="endArrow=none;html=1;rounded=0;exitX=1;exitY=0.5;exitDx=0;exitDy=0;entryX=0;entryY=0.5;entryDx=0;entryDy=0;" edge="1" parent="1" source="fIc0N1o0Y2s-ZAZE2yNl-12" target="fIc0N1o0Y2s-ZAZE2yNl-14">
          <mxGeometry width="50" height="50" relative="1" as="geometry">
            <mxPoint x="380" y="450" as="sourcePoint" />
            <mxPoint x="430" y="400" as="targetPoint" />
          </mxGeometry>
        </mxCell>
        <mxCell id="fIc0N1o0Y2s-ZAZE2yNl-22" value="" style="endArrow=none;html=1;rounded=0;exitX=0.5;exitY=1;exitDx=0;exitDy=0;entryX=0;entryY=0.5;entryDx=0;entryDy=0;" edge="1" parent="1" source="fIc0N1o0Y2s-ZAZE2yNl-12" target="fIc0N1o0Y2s-ZAZE2yNl-18">
          <mxGeometry width="50" height="50" relative="1" as="geometry">
            <mxPoint x="50" y="610" as="sourcePoint" />
            <mxPoint x="100" y="560" as="targetPoint" />
          </mxGeometry>
        </mxCell>
        <mxCell id="fIc0N1o0Y2s-ZAZE2yNl-35" value="" style="edgeStyle=orthogonalEdgeStyle;rounded=0;orthogonalLoop=1;jettySize=auto;html=1;" edge="1" parent="1" source="fIc0N1o0Y2s-ZAZE2yNl-27" target="fIc0N1o0Y2s-ZAZE2yNl-34">
          <mxGeometry relative="1" as="geometry" />
        </mxCell>
        <mxCell id="fIc0N1o0Y2s-ZAZE2yNl-27" value="SubFlow Deployments" style="ellipse;whiteSpace=wrap;html=1;" vertex="1" parent="1">
          <mxGeometry x="470" y="280" width="120" height="80" as="geometry" />
        </mxCell>
        <mxCell id="fIc0N1o0Y2s-ZAZE2yNl-28" style="edgeStyle=orthogonalEdgeStyle;rounded=0;orthogonalLoop=1;jettySize=auto;html=1;entryX=0;entryY=0.5;entryDx=0;entryDy=0;exitX=1;exitY=0.5;exitDx=0;exitDy=0;" edge="1" parent="1" target="fIc0N1o0Y2s-ZAZE2yNl-30">
          <mxGeometry relative="1" as="geometry">
            <mxPoint x="530" y="460" as="targetPoint" />
            <mxPoint x="270" y="460" as="sourcePoint" />
          </mxGeometry>
        </mxCell>
        <mxCell id="fIc0N1o0Y2s-ZAZE2yNl-29" value="Run_Deployments" style="edgeLabel;html=1;align=center;verticalAlign=middle;resizable=0;points=[];" vertex="1" connectable="0" parent="fIc0N1o0Y2s-ZAZE2yNl-28">
          <mxGeometry x="-0.0797" y="-2" relative="1" as="geometry">
            <mxPoint as="offset" />
          </mxGeometry>
        </mxCell>
        <mxCell id="fIc0N1o0Y2s-ZAZE2yNl-30" value="SubFlow Deployments" style="ellipse;whiteSpace=wrap;html=1;" vertex="1" parent="1">
          <mxGeometry x="470" y="420" width="120" height="80" as="geometry" />
        </mxCell>
        <mxCell id="fIc0N1o0Y2s-ZAZE2yNl-31" style="edgeStyle=orthogonalEdgeStyle;rounded=0;orthogonalLoop=1;jettySize=auto;html=1;entryX=0;entryY=0.5;entryDx=0;entryDy=0;exitX=1;exitY=0.5;exitDx=0;exitDy=0;" edge="1" parent="1" target="fIc0N1o0Y2s-ZAZE2yNl-33" source="fIc0N1o0Y2s-ZAZE2yNl-18">
          <mxGeometry relative="1" as="geometry">
            <mxPoint x="560" y="590" as="targetPoint" />
            <mxPoint x="300" y="590" as="sourcePoint" />
          </mxGeometry>
        </mxCell>
        <mxCell id="fIc0N1o0Y2s-ZAZE2yNl-32" value="Run_Deployments" style="edgeLabel;html=1;align=center;verticalAlign=middle;resizable=0;points=[];" vertex="1" connectable="0" parent="fIc0N1o0Y2s-ZAZE2yNl-31">
          <mxGeometry x="-0.0797" y="-2" relative="1" as="geometry">
            <mxPoint as="offset" />
          </mxGeometry>
        </mxCell>
        <mxCell id="fIc0N1o0Y2s-ZAZE2yNl-33" value="SubFlow Deployments" style="ellipse;whiteSpace=wrap;html=1;" vertex="1" parent="1">
          <mxGeometry x="470" y="550" width="120" height="80" as="geometry" />
        </mxCell>
        <mxCell id="fIc0N1o0Y2s-ZAZE2yNl-34" value="Work Pool x" style="ellipse;whiteSpace=wrap;html=1;" vertex="1" parent="1">
          <mxGeometry x="650" y="280" width="120" height="80" as="geometry" />
        </mxCell>
        <mxCell id="fIc0N1o0Y2s-ZAZE2yNl-36" value="" style="edgeStyle=orthogonalEdgeStyle;rounded=0;orthogonalLoop=1;jettySize=auto;html=1;" edge="1" parent="1" target="fIc0N1o0Y2s-ZAZE2yNl-37">
          <mxGeometry relative="1" as="geometry">
            <mxPoint x="590" y="460" as="sourcePoint" />
          </mxGeometry>
        </mxCell>
        <mxCell id="fIc0N1o0Y2s-ZAZE2yNl-37" value="Work Pool y ...etc" style="ellipse;whiteSpace=wrap;html=1;" vertex="1" parent="1">
          <mxGeometry x="650" y="420" width="120" height="80" as="geometry" />
        </mxCell>
        <mxCell id="fIc0N1o0Y2s-ZAZE2yNl-39" value="" style="edgeStyle=orthogonalEdgeStyle;rounded=0;orthogonalLoop=1;jettySize=auto;html=1;" edge="1" parent="1" source="fIc0N1o0Y2s-ZAZE2yNl-38" target="fIc0N1o0Y2s-ZAZE2yNl-34">
          <mxGeometry relative="1" as="geometry" />
        </mxCell>
        <mxCell id="fIc0N1o0Y2s-ZAZE2yNl-40" value="Pull" style="edgeLabel;html=1;align=center;verticalAlign=middle;resizable=0;points=[];" vertex="1" connectable="0" parent="fIc0N1o0Y2s-ZAZE2yNl-39">
          <mxGeometry x="-0.0889" y="2" relative="1" as="geometry">
            <mxPoint as="offset" />
          </mxGeometry>
        </mxCell>
        <mxCell id="fIc0N1o0Y2s-ZAZE2yNl-38" value="Workers" style="ellipse;whiteSpace=wrap;html=1;" vertex="1" parent="1">
          <mxGeometry x="830" y="280" width="120" height="80" as="geometry" />
        </mxCell>
        <mxCell id="fIc0N1o0Y2s-ZAZE2yNl-41" value="" style="edgeStyle=orthogonalEdgeStyle;rounded=0;orthogonalLoop=1;jettySize=auto;html=1;" edge="1" parent="1" source="fIc0N1o0Y2s-ZAZE2yNl-43">
          <mxGeometry relative="1" as="geometry">
            <mxPoint x="770" y="460" as="targetPoint" />
          </mxGeometry>
        </mxCell>
        <mxCell id="fIc0N1o0Y2s-ZAZE2yNl-42" value="Pull" style="edgeLabel;html=1;align=center;verticalAlign=middle;resizable=0;points=[];" vertex="1" connectable="0" parent="fIc0N1o0Y2s-ZAZE2yNl-41">
          <mxGeometry x="-0.0889" y="2" relative="1" as="geometry">
            <mxPoint as="offset" />
          </mxGeometry>
        </mxCell>
        <mxCell id="fIc0N1o0Y2s-ZAZE2yNl-43" value="Workers" style="ellipse;whiteSpace=wrap;html=1;" vertex="1" parent="1">
          <mxGeometry x="830" y="420" width="120" height="80" as="geometry" />
        </mxCell>
        <mxCell id="fIc0N1o0Y2s-ZAZE2yNl-44" value="" style="edgeStyle=orthogonalEdgeStyle;rounded=0;orthogonalLoop=1;jettySize=auto;html=1;" edge="1" parent="1" target="fIc0N1o0Y2s-ZAZE2yNl-45">
          <mxGeometry relative="1" as="geometry">
            <mxPoint x="590" y="590" as="sourcePoint" />
          </mxGeometry>
        </mxCell>
        <mxCell id="fIc0N1o0Y2s-ZAZE2yNl-45" value="Work Pool y ...etc" style="ellipse;whiteSpace=wrap;html=1;" vertex="1" parent="1">
          <mxGeometry x="650" y="550" width="120" height="80" as="geometry" />
        </mxCell>
        <mxCell id="fIc0N1o0Y2s-ZAZE2yNl-46" value="Pull" style="edgeLabel;html=1;align=center;verticalAlign=middle;resizable=0;points=[];" vertex="1" connectable="0" parent="1">
          <mxGeometry x="802" y="592" as="geometry" />
        </mxCell>
        <mxCell id="fIc0N1o0Y2s-ZAZE2yNl-47" value="Workers" style="ellipse;whiteSpace=wrap;html=1;" vertex="1" parent="1">
          <mxGeometry x="830" y="550" width="120" height="80" as="geometry" />
        </mxCell>
        <mxCell id="fIc0N1o0Y2s-ZAZE2yNl-50" value="Status: Completed" style="edgeLabel;html=1;align=center;verticalAlign=middle;resizable=0;points=[];" vertex="1" connectable="0" parent="1">
          <mxGeometry x="240" y="520" as="geometry" />
        </mxCell>
      </root>
    </mxGraphModel>
  </diagram>
</mxfile>
